<?xml version="1.0" encoding="utf-8"?>
<!-- Generator: Adobe Illustrator 24.3.0, SVG Export Plug-In . SVG Version: 6.00 Build 0)  -->
<svg version="1.1" id="Layer_1" xmlns="http://www.w3.org/2000/svg" xmlns:xlink="http://www.w3.org/1999/xlink" x="0px" y="0px"
	 viewBox="0 0 2500 2500" style="enable-background:new 0 0 2500 2500;" xml:space="preserve">
<style type="text/css">
	.st0{fill:#90688F;}
	.st1{fill:#9A74AC;}
	.st2{fill:#835690;}
	.st3{fill:#8A5F8F;}
	.st4{fill:#845790;}
	.st5{fill:#7B4A90;}
	.st6{fill:#8D648F;}
	.st7{fill:#7D4D90;}
	.st8{fill:#764390;}
	.st9{fill:#8C638F;}
	.st10{fill:#784690;}
	.st11{fill:#895E8F;}
	.st12{fill:#8B618F;}
	.st13{fill:#815390;}
	.st14{fill:#8F668F;}
	.st15{fill:#7F5090;}
	.st16{fill:#855990;}
	.st17{fill:#875C90;}
	.st18{fill:#7E4F90;}
	.st19{fill:#774490;}
	.st20{fill:#6F3991;}
	.st21{fill:#8355A0;}
	.st22{fill:#E1D6E8;}
	.st23{fill:#BEA5CE;}
	.st24{fill:#9A75B2;}
	.st25{fill:#956EAF;}
	.st26{fill:#DCD0E5;}
	.st27{fill:#B69BC8;}
	.st28{fill:#723D90;}
	.st29{fill:#703B91;}
	.st30{fill:#733F90;}
	.st31{fill:#6C3591;}
	.st32{fill:#6D3691;}
	.st33{fill:#6F3A91;}
	.st34{fill:#6A3391;}
	.st35{fill:#7C4B90;}
	.st36{fill:url(#SVGID_1_);}
</style>
<path class="st0" d="M2306.1,1621.2c3.2,3.4,5.5,7.4,8.2,11.2c17.2,24.2,34.4,48.4,51.5,72.7c1.1,1.5,2.1,3.1,3.1,4.6v1
	c-5.1,5-2.8,4.5-10.6,4.5c-48.5,0.1-96.9,0.2-145.4,0.3c-2,0-4.1,0.4-6.1-0.5c1.5-1.8,3.6-1.7,5.6-1.7c9.5,0,19-0.2,28.6,0.1
	c18.3-0.3,36.6,0,54.9-0.1c8.4,0,8.4,0,8.4-8.6c0-25,0-50,0-75C2304.6,1626.7,2304,1623.7,2306.1,1621.2z"/>
<path class="st1" d="M1214.4,996.7c0,0.4-0.1,0.7-0.1,1.1c-3.4,2.2-7.7,2.2-11.1,0l-0.1-1.1H1214.4z"/>
<path class="st2" d="M1666.6,1224.4c5.5-0.2,10.9,1.2,16.3,2.2c17.6,3.2,34.7,8.3,51.1,15.3c9.3,4,18.3,8.7,26.8,14.1
	c0.5,0.4,1.1,0.8,1.6,1.3c2,2.9,1.7,6.2,1.7,9.5c0,45.8,0,91.6,0,137.4c0,100.2,0,200.4,0,300.5c0,3.4,0.7,6.9-1.3,10
	c-3.5,1.1-7.1,0.5-10.6,0.5c-13.1-0.2-26.2,0.6-39.2-0.4c-1.8-0.5-2.6-2.1-3.9-3.2c-0.9-0.8-1.4-2-1.4-3.2c0-1.6,0-3.1,0-4.6
	c0-78.4,0-156.8,0-235.2c0.1-15.3-1.9-30.5-6-45.2c-3.2-11.8-8.7-22.8-16.2-32.5c-5-6.3-11-11.8-17.8-16.2c-1.4-0.9-2.8-2-4.2-2.9
	c1.4-3.4,1.5-7,1.5-10.6c0-42.6,0-85.2,0-127.9C1665,1230.3,1664.3,1227.1,1666.6,1224.4z"/>
<path class="st3" d="M1874.7,1237.8c0.3-0.6,1-1,1.6-1c1.5,0,3.1-0.1,4.6-0.1c49.2,0,98.5,0.1,147.7-0.1c5.6,0,9.8,2.5,14.3,4.8
	c1.1,0.6,1.9,2,2.7,3.1c6.7,9.5,13.4,19.1,20.1,28.7c5.1,7.3,10.2,14.6,15.3,21.9c0.7,1,1.6,1.8,1.8,3.1c0.5,1.4,0.8,3,0.8,4.5
	c-0.7,107.7-0.1,215.3-0.4,323c0,4,0.8,7.8,0.4,11.8c-3,5.6-7,10.6-10.6,15.8c-12.3,17.8-24.7,35.4-37,53.2
	c-1.8,2.5-4.1,4.5-6.9,5.9c-3.4,2-7.3,3-11.3,3c-1.7-0.1-3.4,0-5.1,0c-47.2,0-94.3,0-141.5,0c-2,0-4.1,0.6-6-0.7
	c1.6-1.6,3.7-1.6,5.8-1.6c27.9,0,55.8-0.2,83.7,0.1c17.8-0.3,35.7,0,53.5-0.1c7.6,0,7.7-0.2,7.7-7.8c0-70.2,0-140.4,0-210.6
	c0-1.2-0.1-2.4-0.4-3.6c2.7-5,6.4-9.3,9.5-14c1.9-2.8,4-5.6,6-8.4c2.2-3.1,2.4-2.7-0.1-6.2c-4.5-6.2-9.1-12.5-13.6-18.7
	c-0.8-0.8-1.5-1.9-1.8-3c0.8-3.4,0.5-6.8,0.5-10.2c0-60.9,0-121.8,0-182.8c0-0.9,0-1.7,0-2.6c-0.2-5.3-0.6-5.8-6.1-5.8
	c-16.7-0.1-33.3,0-49.9,0c-2.1,0-4.1,0-6.2-0.1c-24.5,0.3-49,0.1-73.5,0.1C1878.4,1239.4,1876.3,1239.4,1874.7,1237.8z"/>
<path class="st4" d="M1762.3,1714.6c0-107.1,0-214.2,0-321.3c0-45.3,0-90.7,0-136c2.9,1.1,5.3,3.2,7.8,4.9
	c24.2,17.4,43.7,40.6,56.4,67.6c0.3,0.8,0.6,1.6,0.8,2.4c0.5,4.8,0.6,9.6,0.5,14.4c0,119.2,0,238.3,0,357.5c0,11.1,0,11.1-11.2,11.1
	c-16.5,0-33,0-49.4,0C1765.7,1715.2,1763.9,1715.8,1762.3,1714.6z"/>
<path class="st5" d="M1356.5,1714.8c-1.8-0.5-2.6-2.1-3.9-3.2c-0.9-0.8-1.4-2-1.3-3.2c0.1-1.5,0-3.1,0-4.6v-455.9c0-0.5,0-1,0-1.6
	c-0.5-3.8,0.7-6.7,4.2-8.5c5.1-1.1,10.2-0.5,15.3-0.4c12.5,0.1,25-0.6,37.4,0.4c2.1,2.7,1.5,5.9,1.5,9c0,39.5,0,78.9,0,118.4
	c0,113.2,0,226.5,0,339.7c0,3.4,0.7,6.9-1.4,10c-3.3,1.2-6.7,0.5-10.1,0.5c-12.2,0.1-24.5,0.1-36.8,0
	C1359.8,1715.2,1358.1,1715.7,1356.5,1714.8z"/>
<path class="st6" d="M2241.3,1714.6l-26.6,0.1c-2.6,0-5.1,0.1-7.7,0.1c-3.8-0.5-6.9-2.9-10.2-4.6c-0.8-0.6-1.5-1.4-2-2.3
	c-6.1-8.7-12.2-17.4-18.2-26.2c-0.2-0.3-0.3-0.7-0.3-1c0.7-3.2,0.5-6.5,0.5-9.7c0-136.6,0-273.3,0-409.9c0-1.7,0.2-3.4-0.4-5.1
	c2.6-4.8,6-9,9.1-13.5c0.5-0.7,1.1-1.3,1.9-1.6c2.4-1.2,4.7-2.8,7.4-3.4c15.6-0.7,31.1-0.6,46.7,0c1.9,2.2,1.5,4.8,1.5,7.4
	c0.1,50.6-0.1,101.2,0.1,151.8c0,1.7-0.2,3.4-0.6,5.1c-2.8,5-6.4,9.3-9.7,13.9c-11.2,15.5-22.5,31.1-33.9,46.6
	c-0.6,0.8-1.2,1.7-1.7,2.6c-0.4,0.6-0.3,1.4,0.1,1.9c0.9,1.4,1.9,2.8,2.9,4.2c13.4,18.9,26.7,37.8,40.1,56.7
	c0.8,1.1,1.4,2.3,2.1,3.5c0.5,2.2,0.6,4.4,0.6,6.6c-0.1,55.8-0.1,111.6-0.1,167.4C2242.9,1708.4,2243.7,1711.8,2241.3,1714.6z"/>
<path class="st7" d="M1408.1,1237.8h-52.6c0.3-0.6,1-1,1.6-1c1.4,0,2.7-0.1,4.1-0.1h122.5c0.3,0,0.7,0,1,0c3.9-0.8,6,1.7,8.2,4.2
	c0.9,1,0.8,2.2,0.8,3.4c0,3.4,0,6.9,0,10.3c0,1.4,0.7,1.7,2,1.2c1.9-0.8,3.5-2.2,5.6-2.6c3.1-1.2,4.5,0.4,4.9,3.3
	c0.3,2.4,0.3,4.8,0.2,7.2c0,40.4,0,80.9-0.1,121.3c0,4.2,1.7,8.5-0.6,12.7c-2.8,2.8-5.6,5.5-8.3,8.4c-4.6,4.8-3.8,3.4-3.8,9.4
	c0,95.9,0,191.9,0,287.8c-0.1,1.2-0.1,2.4,0,3.6c0.6,4-2.3,5.8-4.8,7.9c-0.6,0.3-1.3,0.5-2,0.4c-0.8,0.1-1.7,0-2.6,0
	c-41,0.1-82,0.1-123,0.2c-1.7,0-3.4,0.5-5-0.6c15.2,0,30.3,0,45.4,0c2,0,4.1-0.1,6.1-0.2c2-1.7,4.5-1.5,6.9-1.5
	c6.7-0.1,13.4-0.1,20.1,0c3.6,0,5.4-1.4,5.3-5.2c0-1.9,0-3.8,0-5.7c0-150.7,0-301.4,0-452.1c0-11.6,0.4-10.7-10.6-10.7
	c-5.2,0-10.3,0-15.4,0C1412.2,1239.4,1409.9,1239.4,1408.1,1237.8z"/>
<path class="st8" d="M1143.1,1714.9c-2.3-0.6-3.4-2.7-5-4.2c-0.5-0.7-0.8-1.5-0.7-2.4c0-1.6,0-3.1,0-4.6v-455.5c0-0.3,0-0.7,0-1
	c-0.7-4.2,1-7.3,4.6-9.5c14.6-0.6,29.2-0.6,43.8,0c2,2.5,1.5,5.6,1.5,8.4c0,31.8,0,63.5,0,95.2c0,121.1,0,242.3,0,363.4
	c0,3.4,0.7,6.9-1.4,10c-6.9,1.1-13.9,0.4-20.9,0.5C1157.7,1715.2,1150.3,1715.8,1143.1,1714.9z"/>
<path class="st9" d="M2176.3,1256.2c1,0.2,2,0.6,2.1,1.9c0.1,1.7,0.1,3.4,0.1,5.1v410.6c0,1.7,0,3.4-0.1,5.1
	c-0.1,1.3-1.1,1.6-2.1,1.9h0.1c-0.2-0.5-0.6-0.8-1-1.2c-2.4-2.3-3.9-5.2-5.8-7.8c-17.1-24.6-34.2-49.1-51.3-73.7
	c-0.9-1.3-1.8-2.5-2.8-3.7c-0.5-0.7-1.3-0.2-1.9-0.1c-0.7-4.3,0.4-8.5,0.4-12.8c-0.1-75.3-0.1-150.7,0-226c0-4.6-1.4-9.1-0.5-13.7
	c1,0.5,1.8,0.8,2.6-0.4c2-3,4.1-5.9,6.2-8.8c16.6-23.7,33.2-47.4,49.8-71.1c0.6-0.8,1.3-1.6,2-2.3c0.9-0.3,0.7-1.4,1.3-1.9l0,0
	C2175.7,1257,2176.1,1256.7,2176.3,1256.2L2176.3,1256.2z"/>
<path class="st10" d="M1143.1,1714.9l35.9-0.1c2.2,0,4.4-0.1,6.7-0.2c2.4-1.9,5.2-1.5,7.9-1.5c15.8-0.1,31.6,0,47.4,0
	c6.4,0,6.8-0.5,6.9-6.6c0-1.4,0-2.8,0-4.1c0-150.7,0-301.4,0-452.2c0-11.6,0.5-10.7-10.6-10.7c-14.6,0-29.2,0-43.8,0
	c-2.7,0-5.6,0.3-7.9-1.7c-12.7,0-25.3,0-38,0c-1.9,0-3.8-0.1-5.7-0.1c0.4-0.6,1.1-0.9,1.8-0.9c1.4,0,2.7-0.1,4.1-0.1h122
	c0.3,0,0.7,0,1,0c4.1-0.8,6.3,1.9,8.6,4.5c0.5,0.7,0.8,1.5,0.8,2.4c0,1.4,0,2.8,0,4.1v456.7c-0.1,0.5-0.1,1,0,1.5
	c0.8,4.1-1.9,6.3-4.6,8.5c-0.7,0.5-1.5,0.7-2.4,0.8c-1.4,0.1-2.8,0.1-4.1,0.1c-40.2,0-80.3,0-120.5,0
	C1146.8,1715.4,1144.8,1715.8,1143.1,1714.9z"/>
<path class="st11" d="M2015.7,1491.2c1.1,0.2,2,0.7,2,1.9s0.1,2.8,0.1,4.1v211c0,1.4,0,2.8-0.1,4.1c-0.1,1.8-0.6,2.3-2.6,2.4
	c-0.7,0-1.4,0-2.1,0h-55.6c-0.8,0-1.7-0.1-2.6-0.1c-2.3-2.6-1.6-5.8-1.6-8.9c-0.1-37.7-0.1-75.4,0-113.1c0-4.3-0.1-8.6-0.4-12.8
	c0.4-0.8,0.8-1.5,1.2-2.2c19.5-27.5,38.9-55,58.4-82.5c0.5-0.7,1.1-1.3,1.7-1.9C2015.4,1493,2015.2,1491.8,2015.7,1491.2
	L2015.7,1491.2z"/>
<path class="st11" d="M1953.9,1237.8h57.6c6.8,0,6.3-0.3,6.3,6.5v189.7c0,1.2,0,2.4,0,3.6c0,1.4-0.9,2.7-2.2,3.2h0.1
	c-0.2-0.5-0.6-0.8-1-1.2l0,0c-0.6-0.5-0.4-1.6-1.3-2l0.1,0.1c-0.2-0.5-0.5-0.9-1-1.2l0.1,0.1c-0.3-0.4-0.6-0.8-0.9-1.1
	c-4.4-4.9-7.9-10.4-11.7-15.6c-15.3-20.9-30.6-41.9-45.7-62.9c-0.6-0.9-1.1-1.7-1.5-2.6c-1-14.4-0.4-28.7-0.5-43.1
	c-0.1-21.7,0-43.5,0-65.2C1952.3,1243.3,1951.8,1240.3,1953.9,1237.8z"/>
<path class="st12" d="M2113.5,1342c0.2,0.8,0.6,1.6,1,2.3c0.8,1.1,1.2,2.5,1.1,3.8c0,0.7,0,1.4,0,2.1c0,78.8,0,157.7,0,236.5
	c0,2.8-0.4,5.4-2,7.7c-1.2,3-3.4,5.4-5.3,8.1c-7.4,10.8-14.9,21.5-22.4,32.2c-0.7,1-1.5,1.8-2.2,2.7c-1.5-2.7-2.3-5.8-2.1-8.8
	c0.1-107,0.1-213.9,0-320.9c0-3.3,0.9-6.4,1.2-9.6c3.4,3.4,5.7,7.6,8.4,11.5c7,9.8,13.9,19.8,20.8,29.7
	C2112.6,1340.2,2113,1341.1,2113.5,1342z"/>
<path class="st13" d="M1666.6,1224.4v140.2c0,1.4,0,2.7,0,4.1c-0.1,2.4-0.1,2.4-3.1,3c-2-0.9-4-1.9-6-2.8
	c-9.8-4.4-20.2-7.3-30.9-8.7c-9.7-1.3-19.4-1.2-29.1-1l-6.1,0.1c0.3-2.7,2.6-2.4,4.3-2.6c3.3-0.3,4.4-2.1,4.3-5.1c0-1,0-2.1,0-3.1
	c0-38.4-0.1-76.8,0.1-115.2c0-4.4-0.6-8.1-4.9-10.2c0.6-0.3,1.3-0.5,1.9-0.6c15-1.5,30-1.7,45-0.6c6.1,0.5,12.3,0.9,18.4,1.4
	C1662.6,1223.5,1664.6,1223.8,1666.6,1224.4z"/>
<path class="st14" d="M2241.3,1714.6c0-58.8,0-117.6,0-176.4c0-2.4-0.3-4.8,1.1-7c0.6,0.6,1.2,1.2,1.7,1.9
	c19.9,28.1,39.7,56.1,59.6,84.2c0.9,1.2,1.6,2.6,2.4,3.9v88.5c0,0.7,0,1.4,0,2.1c-0.1,2.5-0.5,2.8-3.1,3c-0.5,0-1,0-1.5,0h-58.1
	C2242.6,1714.8,2242,1714.7,2241.3,1714.6z"/>
<path class="st15" d="M1595.2,1223.2l2.6,0.1c3.8,0.2,3.9,0.2,3.9,4.3c0,4.3,0,8.6,0,12.9V1352c0,6.5,0.4,6.3-6,6.3
	c-1.5,0-3.1-0.4-4.3,1c-2.6,1.2-5.4,0.9-8,1.4c-15,2.6-29.5,7.4-43.1,14.2c-0.8,0.3-1.6,0.6-2.4,0.8c-2-3.3-1.6-7-1.6-10.5
	c0-37.4,0-74.7,0-112.1c0-5.1,0-10.3-0.5-15.4c5.5-2.8,11.5-4.3,17.3-6.1c11.6-3.5,23.5-6.2,35.5-8
	C1590.8,1223.3,1593,1223.4,1595.2,1223.2z"/>
<path class="st16" d="M1762.3,1714.6c2.6,0.1,5.1,0.2,7.7,0.2h49.4c7.3,0,6.8,0.5,6.8-6.6v-368.4c0-2.6-0.3-5.2,1.2-7.5
	c1.5,1.7,2.2,3.9,3,5.9c7.3,17.2,12.5,35.3,15.5,53.7c2.9,17.6,4.3,35.4,4.2,53.3c-0.1,86-0.1,172,0,258c-0.1,1.2-0.1,2.4,0,3.6
	c0.3,2.7-0.8,4.6-2.7,6.3c-1.3,1.4-3.1,2.1-5,2.1c-6.9,0-13.7,0.2-20.6,0.2c-34.5,0-69,0-103.5,0c-1.8,0-3.8,0.5-5.5-0.6
	c14.5,0,28.9,0,43.4,0C1758.3,1714.8,1760.3,1714.7,1762.3,1714.6z"/>
<path class="st14" d="M2242.5,1401.9c-0.8-1.5-1.3-3.2-1.2-4.9c0.1-1.9,0-3.8,0-5.7v-153.5c2.5-1,5.1-0.5,7.6-0.5
	c17.1-0.1,34.2,0,51.3,0c5.9,0,6.5,0.4,6.5,6.4c0.2,15.8,0.1,31.5,0,47.2c0,7.4,0.3,14.7,0.4,22.1c-4,6.6-8.9,12.6-13.4,18.8
	c-16.1,22.2-32.2,44.4-48.4,66.6C2244.6,1399.7,2243.6,1400.9,2242.5,1401.9z"/>
<path class="st17" d="M1952.9,1579.8c1.3,1.1,2,2.8,2,4.5c0,0.9,0,1.7,0,2.6c0,42.6,0,85.1,0,127.7c-1.7,0-3.4,0.1-5.1,0.1h-84.4
	c-2.2-0.8-3.2-2.9-4.8-4.1c0.2-1.3,0.8-2.5,1.7-3.5c28.1-39.6,56.2-79.2,84.2-118.9c0.6-0.8,1.3-1.5,2-2.3c0.9-0.9,1.7-2,2.2-3.1
	l0,0c0.5-0.3,0.8-0.7,1-1.2l-0.1,0.1C1952.5,1581.4,1952.3,1580.3,1952.9,1579.8L1952.9,1579.8z"/>
<path class="st17" d="M1953.9,1237.8c0,36.9,0,73.9,0,110.9c0,2,0.7,4.2-1.2,5.8l0.1-0.1c-0.1-0.6-0.6-0.8-1-1.2l0,0
	c-0.7-1-1.2-2.3-2.2-3.1c-2.5-2.4-4.2-5.3-6.2-8.1c-23.5-32.3-46.9-64.5-70.4-96.8c-2.7-3.8-3.2-3.1,0.8-6.9
	c0.3-0.2,0.6-0.4,0.9-0.5L1953.9,1237.8z"/>
<path class="st18" d="M1535.7,1237.8c1.1,0.2,2,0.6,2,1.9c0.1,1.5,0.1,3.1,0.1,4.6c0,40.6,0,81.3,0,121.9c0,2.7-0.2,5.5,0.4,8.2
	c0.1,0.4-0.3,1-0.4,1.4c-0.5,0.4-1.1,0.8-1.6,1.2c-9.9,5.3-19.2,11.6-27.8,18.8c-0.8,0.7-1.6,1.2-2.5,1.8c0.1-0.7,0-1.3-0.1-2
	c-1.3-4-1-8.1-1-12.2c0-41,0-81.9,0-122.8c0-1.4,0-2.7,0-4.1c-0.1-2.6-0.1-2.6-3.4-3.2c0.2-0.3,0.5-0.5,0.7-0.7
	c10.5-5.6,21.4-10.5,32.6-14.6C1535,1237.8,1535.3,1237.7,1535.7,1237.8z"/>
<path class="st0" d="M2307.2,1312.9c-1.5-2.7-2.3-5.8-2.1-8.8c0.1-19.9,0-39.8,0-59.7c0-1.5,0-3.1-0.1-4.6c0-1.1-0.9-1.9-1.9-1.9
	c0,0-0.1,0-0.1,0c-1.4-0.1-2.8-0.1-4.1-0.1h-57.6l-46.6-0.1c0.6-0.7,1.4-1,2.3-1c1.5,0,3.1,0,4.6,0h147.1c0.5,0.1,1,0.1,1.5,0
	c3.9-0.8,6,1.7,8.1,4.2c0.5,0.5,0.5,1.3,0.1,1.9c-0.5,0.9-1.1,1.7-1.7,2.6c-15.3,21.1-30.6,42.1-45.9,63.2
	C2309.6,1310.1,2308.4,1311.5,2307.2,1312.9z"/>
<path class="st11" d="M1950.8,1582.8c0.2,1.5-0.8,2.8-2.2,3.1C1948.9,1584.7,1949.7,1583.6,1950.8,1582.8z"/>
<path class="st11" d="M1949.6,1350.1c1.4,0.3,2.4,1.6,2.2,3.1C1950.7,1352.5,1949.9,1351.4,1949.6,1350.1z"/>
<path class="st11" d="M1952.9,1579.8c0,0.9-0.2,1.7-1.2,2C1951.7,1581,1952.2,1580.2,1952.9,1579.8z"/>
<path class="st3" d="M2015.7,1491.2c0,1-0.3,1.8-1.5,2C2014.4,1492.3,2015,1491.6,2015.7,1491.2z"/>
<path class="st3" d="M2013.4,1437.7c1,0.3,1.2,1.1,1.3,2C2013.9,1439.4,2013.4,1438.6,2013.4,1437.7z"/>
<path class="st6" d="M2175.4,1257.4c-0.1,0.9-0.3,1.7-1.3,1.9C2174.2,1258.5,2174.7,1257.8,2175.4,1257.4z"/>
<path class="st19" d="M1168.9,1155.5c0.6,0,1.1,0.5,1.1,1.1C1169.4,1156.6,1168.9,1156.1,1168.9,1155.5z"/>
<path class="st19" d="M1169.9,1156.5c0.6,0,1.1,0.5,1.1,1.1C1170.4,1157.6,1170,1157.1,1169.9,1156.5z"/>
<path class="st19" d="M1170.9,1157.6c0.6,0,1.1,0.5,1.1,1.1C1171.5,1158.6,1171,1158.2,1170.9,1157.6z"/>
<path class="st19" d="M1172,1158.6c0.6,0,1.1,0.5,1.1,1.1C1172.5,1159.6,1172.1,1159.2,1172,1158.6z"/>
<path class="st19" d="M1173,1159.6c0.6,0,1.1,0.5,1.1,1.1C1173.6,1160.7,1173.1,1160.2,1173,1159.6z"/>
<path class="st19" d="M1174,1160.7c0.6,0,1.1,0.5,1.1,1.1C1174.6,1161.7,1174.1,1161.2,1174,1160.7z"/>
<path class="st19" d="M1153.4,1140.1c0.6,0,1.1,0.5,1.1,1.1C1154,1141.1,1153.5,1140.6,1153.4,1140.1z"/>
<path class="st19" d="M1176.1,1162.7c0.6,0,1.1,0.5,1.1,1.1C1176.6,1163.8,1176.2,1163.3,1176.1,1162.7z"/>
<path class="st19" d="M1177.1,1163.8c0.6,0,1.1,0.5,1.1,1.1C1177.7,1164.8,1177.2,1164.3,1177.1,1163.8z"/>
<path class="st19" d="M1178.1,1164.8c0.6,0,1.1,0.5,1.1,1.1C1178.7,1165.8,1178.2,1165.4,1178.1,1164.8z"/>
<path class="st19" d="M1179.2,1165.8c0.6,0,1.1,0.5,1.1,1.1C1179.7,1166.9,1179.2,1166.4,1179.2,1165.8z"/>
<path class="st19" d="M1180.2,1166.8c0.6,0,1.1,0.5,1.1,1.1C1180.7,1167.9,1180.3,1167.4,1180.2,1166.8z"/>
<path class="st19" d="M1152.4,1139c0.6,0,1.1,0.5,1.1,1.1C1152.9,1140.1,1152.5,1139.6,1152.4,1139z"/>
<path class="st19" d="M1151.2,1138c0.7,0,1.2,0.5,1.3,1.2C1151.9,1139,1151.4,1138.6,1151.2,1138z"/>
<path class="st6" d="M2176.4,1256.2l-0.9,1.2C2175.4,1256.8,2175.8,1256.3,2176.4,1256.2z"/>
<path class="st19" d="M1167.8,1154.5c0.6,0,1.1,0.5,1.1,1.1C1168.4,1155.5,1167.9,1155.1,1167.8,1154.5z"/>
<path class="st19" d="M1166.8,1153.4c0.6,0,1.1,0.5,1.1,1.1C1167.3,1154.5,1166.9,1154,1166.8,1153.4z"/>
<path class="st11" d="M1951.8,1353.2c0.5,0.2,0.9,0.6,1,1.2C1952.3,1354.2,1951.9,1353.8,1951.8,1353.2z"/>
<path class="st3" d="M2011.7,1435.6l0.9,1.1C2012.1,1436.6,2011.7,1436.1,2011.7,1435.6z"/>
<path class="st3" d="M2012.5,1436.7c0.5,0.2,0.9,0.6,1,1.2C2013,1437.7,2012.6,1437.2,2012.5,1436.7z"/>
<path class="st19" d="M1165.8,1152.4c0.6,0,1.1,0.5,1.1,1.1C1166.3,1153.5,1165.9,1153,1165.8,1152.4z"/>
<path class="st3" d="M2014.7,1439.7l1,1.2C2015.2,1440.7,2014.7,1440.3,2014.7,1439.7z"/>
<path class="st19" d="M1164.7,1151.4c0.6,0,1.1,0.5,1.1,1.1C1165.3,1152.4,1164.8,1152,1164.7,1151.4z"/>
<path class="st19" d="M1163.7,1150.3c0.6,0,1.1,0.5,1.1,1.1C1164.3,1151.4,1163.8,1150.9,1163.7,1150.3z"/>
<path class="st19" d="M1162.7,1149.3c0.6,0,1.1,0.5,1.1,1.1C1163.2,1150.4,1162.8,1149.9,1162.7,1149.3z"/>
<path class="st20" d="M861.2,1726.1c-3.5,1.4-7.3,1.2-11,1.9c-3.5,0.6-7.1,0.9-10.6,1.3c-1.3,0.7-2.7,0.3-4,0.4h-8.2
	c-1.8,0.2-3.7-0.6-5.4,0.5h-28.8c-0.3-0.6-0.1-1.3,0.5-1.6c0,0,0,0,0,0c3.9-1,5.2-3.6,5.1-7.6c-0.1-40.4-0.1-80.9,0-121.3
	c0-3-1.3-5.6-1.5-8.5c3.4,0.4,6.8,0.9,10.1,1.2c17.6,1.7,34.8-0.1,51.2-7.1c0.5-0.2,1-0.3,1.5-0.3c0.6-0.6,1.6-0.4,2.1-1.1l0,0
	c2.2,0,2.7,1.8,3.3,3.4c0.4,1.3,0.5,2.7,0.5,4.1c0.1,42,0.1,84,0,126.1C865.9,1721.1,865.7,1724.8,861.2,1726.1z"/>
<path class="st21" d="M822,1730.2c1.5-1.7,3.4-0.8,5.2-1c0.3,0.2,0.4,0.4,0.3,0.7s-0.2,0.3-0.3,0.3L822,1730.2z"/>
<path class="st22" d="M835.5,1729.4h4.1v0.9h-4.1c-0.3-0.2-0.5-0.4-0.3-0.6C835.2,1729.5,835.3,1729.4,835.5,1729.4z"/>
<path class="st23" d="M835.5,1729.4c0,0.3-0.1,0.6-0.1,0.9h-4.1c-0.3-0.2-0.5-0.4-0.3-0.6c0.1-0.1,0.2-0.2,0.4-0.3L835.5,1729.4z"/>
<path class="st24" d="M831.4,1729.3c-0.1,0.3-0.1,0.6-0.1,0.9h-4.1c0-0.3,0-0.7,0.1-1L831.4,1729.3z"/>
<path class="st25" d="M793.2,1729.2c0,0.3,0,0.7,0,1H789c-0.3-0.4-0.3-1.1,0.2-1.4c0,0,0,0,0.1,0
	C790.5,1727.9,792.1,1728.1,793.2,1729.2z"/>
<path class="st26" d="M782.9,1730.2c0-0.3,0-0.6,0-1c1.2-1.2,2.5-1.2,3.9-0.5c0.5,0.3,0.6,0.9,0.3,1.4c0,0,0,0.1-0.1,0.1
	L782.9,1730.2z"/>
<path class="st27" d="M787,1730.2c0-0.3,0-0.6-0.1-0.8c0.4-0.6,1.3-0.7,1.9-0.3c0.1,0.1,0.1,0.1,0.2,0.2c0,0.3,0.1,0.6,0.1,0.9
	L787,1730.2z"/>
<path class="st28" d="M1026.1,1605.8c-0.3,1.1-0.7,2.3-1.2,3.4c-13.7,30.4-34.9,56.7-61.7,76.4c-1,0.7-2,1.3-3,1.9
	c-1.1-1.3-0.8-2.9-0.8-4.4c0.2-223.6,0.3-447.1,0.1-670.7c0-3.2-0.7-6.6,1.4-9.5c1.5-0.8,3-0.4,4.5-0.4c18.4,0,36.7,0,55.1,0
	c5.3,0,5.8,0.5,6.1,5.8c0.1,2.1,0.1,4.1,0.1,6.2c0,193.9,0,387.8,0,581.7C1026.6,1599.3,1026.3,1602.5,1026.1,1605.8z"/>
<path class="st29" d="M961,1003.1c0,46.5,0,93.1,0,139.6v536.7c0,2.7,0.2,5.5-1,8.1c-0.9,0.8-1.8,1.6-2.8,2.2
	c-17.9,12.1-37.5,21.5-58.1,27.8c-0.7,0.2-1.3,0.3-2,0.3c-0.9-1.6-0.7-3.3-0.7-5c0.1-56.4-0.1-112.9,0.1-169.3
	c-0.1-2.1-0.3-4.1-0.7-6.1c0-2.6,1-5,1.5-7.5c1.8-8.4,3.1-16.9,3.9-25.4c1.7-16.8,1.9-33.6,1.9-50.4c0-146.2,0-292.4,0-438.6v-3.1
	c0-5.7,0-5.7,5.2-9.5c5.1-1.1,10.2-0.4,15.3-0.5c10.8-0.1,21.5-0.1,32.3,0C957.8,1002.4,959.6,1001.8,961,1003.1z"/>
<path class="st30" d="M961,1003.1c-2.2-0.1-4.5-0.2-6.7-0.2c-15.3,0-30.6,0-45.8,0c1.7-1.1,3.7-0.6,5.5-0.6c31.9,0,63.8,0,95.7,0
	c9.1,0,18.2,0.3,27.3,0.1c3.9-0.1,6,2,8.1,4.6c0.4,0.6,0.6,1.2,0.6,1.9c0.1,1.4,0.1,2.8,0.1,4.1c0,165.6,0,331.3,0,496.9
	c0.2,31.5-5.8,62.7-17.7,91.9c-0.6,1.4-1,3-2.1,4.1c-0.8-1.3-1.2-2.9-1.2-4.4c0.1-1.5,0-3.1,0-4.6v-586.2c0-1.9,0-3.8-0.1-5.7
	c0-1.1-0.9-1.9-1.9-1.9c0,0,0,0-0.1,0c-0.9-0.1-1.7-0.1-2.6-0.1h-56.6C962.8,1002.9,961.9,1003,961,1003.1z"/>
<path class="st31" d="M733.3,1715.8c-1.6,0-2.9-0.8-4.3-1.4c-22-9.5-42.2-22.7-59.8-38.9c-0.6-0.6-1.1-1.2-1.6-1.9
	c3.5-0.2,4.6-1.9,4.6-5.5c-0.1-38.2-0.1-76.3-0.1-114.5c0-2.9-0.7-5.8-0.4-8.7c1-1.2,2.6-1.7,3.9-2.4c15.3-8,30.6-16,45.9-24
	c1-0.6,2.1-1.1,3.2-1.5c1.6-0.6,3.4-0.6,5,0.1c1.3,0.6,1.3,2.2,1.8,3.5c2,5.6,4.1,11.2,6.1,16.8c0.5,4.1,0.6,8.2,0.6,12.3
	c0,51.7,0,103.3,0,155c0,2.6,0.2,5.2-0.4,7.7C737.3,1714.7,736.4,1716.8,733.3,1715.8z"/>
<path class="st32" d="M733.3,1715.8c1.7,0.1,3.1-1.3,3.2-2.9c0-0.1,0-0.2,0-0.3c0-1.5,0-3.1,0-4.6v-163.5c0-2.4-0.3-4.8,1.1-7
	c1.1,1.9,2.2,3.9,3.2,5.8c4.9,9.8,11.3,18.8,19,26.7c9.6,9.8,21.8,16.9,35.1,20.4c0.8,0.3,1.6,0.6,2.4,0.9c0.5,0.4,1.1,0.8,1.7,1.1
	c0.8,0.3,1.4,1.1,1.3,2c0,1.2,0,2.4,0,3.6c0,41.8,0,83.5,0,125.3c0,1.4,0,2.7-0.1,4.1c0,1-0.9,1.9-1.9,1.9c0,0,0,0-0.1,0
	c-1.7,0.1-3.4,0.1-5.1,0.1l-4.2,0.1l-2.1,0.1l-4.1-0.1c-13.5-1.9-26.8-5-39.7-9.4C739.8,1718.7,736.4,1717.8,733.3,1715.8z"/>
<path class="st33" d="M896,1537.3c1.6,1.4,2.4,3.4,2.2,5.5c0,1,0,2,0,3.1c0,55,0,109.9,0,164.9c0,2.4,0.4,4.8-1,7
	c-3.5,1.7-7.4,2.4-11.2,3.4c-7,1.9-14.2,3.3-21.4,4.7c-1.2,0.2-2.4,0.2-3.5,0.2c2.5-2,3.2-4.6,3.1-7.7c-0.1-17.5,0-35,0-52.4v-75
	c0-2.6,0.2-5.2-2.1-7.1c2.1-1.4,4.3-2.8,6.4-4.3c9.7-6.8,16.5-15.9,21.4-26.5c1.4-3.1,2.7-6.2,4.1-9.4c1.2-0.8,0.3-2.3,1.1-3.2v0.1
	c1.1-0.8,0.3-2.3,1-3.2L896,1537.3z"/>
<path class="st34" d="M671.7,1544.8c1.3,1.1,2,2.8,2,4.6c0,1.2,0,2.4,0,3.6v116.7c0,0.9,0,1.7,0,2.6c0,1.3,0.3,3-1.2,3.6
	c-1.3,0.5-1.9-1.2-2.9-1.7c-0.6-0.3-1.3-0.5-1.9-0.6c-3.2-2.1-5.6-5-8.2-7.7c-22-22.8-38.7-50.2-48.9-80.2c-0.4-1.3-0.5-2.7-1.6-3.8
	c0-0.8-0.2-1.7-0.5-2.5c-0.4-0.7-0.2-1.6,0.4-2c0.1,0,0.1-0.1,0.2-0.1c0.7-0.5,1.5-0.8,2.2-1.2c18.7-9.7,37.3-19.5,56-29.2
	c0.9-0.5,1.9-0.8,2.8-1.1C670.7,1545.6,671.3,1545.3,671.7,1544.8L671.7,1544.8z"/>
<path class="st29" d="M895.1,1540.6c0,1.2,0.3,2.5-1.1,3.2C893.8,1542.6,894.2,1541.4,895.1,1540.6z"/>
<path class="st29" d="M896,1537.4c0.1,1.2,0.4,2.5-1,3.2C895,1539.5,895,1538.3,896,1537.4z"/>
<path class="st33" d="M862.2,1583.9c-0.4,0.7-1.2,1.2-2.1,1.1C860.6,1584.3,861.3,1583.9,862.2,1583.9z"/>
<path class="st31" d="M671.7,1544.8c-0.3,0.5-0.9,0.8-1.5,0.8C670.4,1545.1,671,1544.8,671.7,1544.8z"/>
<path class="st19" d="M1170,1156.6C1170,1156.6,1170,1156.6,1170,1156.6L1170,1156.6L1170,1156.6z"/>
<path class="st19" d="M1163.8,1150.5C1163.8,1150.5,1163.8,1150.5,1163.8,1150.5L1163.8,1150.5L1163.8,1150.5z"/>
<path class="st19" d="M1169,1155.6C1169,1155.6,1169,1155.6,1169,1155.6L1169,1155.6L1169,1155.6z"/>
<path class="st19" d="M1166.9,1153.6C1166.9,1153.6,1166.9,1153.6,1166.9,1153.6L1166.9,1153.6L1166.9,1153.6z"/>
<path class="st19" d="M1172.1,1158.7C1172.1,1158.7,1172.1,1158.6,1172.1,1158.7L1172.1,1158.7L1172.1,1158.7z"/>
<path class="st19" d="M1164.8,1151.5C1164.8,1151.5,1164.8,1151.5,1164.8,1151.5L1164.8,1151.5L1164.8,1151.5z"/>
<path class="st19" d="M1165.9,1152.5C1165.9,1152.5,1165.9,1152.5,1165.9,1152.5L1165.9,1152.5L1165.9,1152.5z"/>
<path class="st19" d="M1171,1157.7C1171,1157.7,1171,1157.6,1171,1157.7L1171,1157.7L1171,1157.7z"/>
<path class="st19" d="M1177.2,1163.9C1177.2,1163.9,1177.2,1163.8,1177.2,1163.9L1177.2,1163.9L1177.2,1163.9z"/>
<path class="st19" d="M1178.2,1164.9C1178.2,1164.9,1178.2,1164.8,1178.2,1164.9L1178.2,1164.9L1178.2,1164.9z"/>
<path class="st19" d="M1179.3,1165.9C1179.3,1165.9,1179.3,1165.9,1179.3,1165.9L1179.3,1165.9L1179.3,1165.9z"/>
<path class="st19" d="M1173.1,1159.7C1173.1,1159.7,1173.1,1159.7,1173.1,1159.7L1173.1,1159.7L1173.1,1159.7z"/>
<path class="st19" d="M1180.3,1167C1180.3,1167,1180.3,1167,1180.3,1167L1180.3,1167L1180.3,1167z"/>
<path class="st19" d="M1174.1,1160.8C1174.1,1160.8,1174.1,1160.7,1174.1,1160.8L1174.1,1160.8L1174.1,1160.8z"/>
<path class="st19" d="M1176.2,1162.8C1176.2,1162.8,1176.2,1162.8,1176.2,1162.8L1176.2,1162.8L1176.2,1162.8z"/>
<path class="st19" d="M1175.2,1161.8C1175.2,1161.8,1175.2,1161.7,1175.2,1161.8L1175.2,1161.8L1175.2,1161.8z"/>
<path class="st19" d="M1167.9,1154.6C1167.9,1154.6,1167.9,1154.6,1167.9,1154.6L1167.9,1154.6L1167.9,1154.6z"/>
<path class="st19" d="M1152.5,1139.1L1152.5,1139.1l-0.1-0.1L1152.5,1139.1z"/>
<path class="st19" d="M1176.1,1025.4L1176.1,1025.4L1176.1,1025.4L1176.1,1025.4z"/>
<path class="st19" d="M1153.5,1140.2C1153.5,1140.2,1153.5,1140.1,1153.5,1140.2L1153.5,1140.2L1153.5,1140.2z"/>
<path class="st19" d="M1177.1,1024.4L1177.1,1024.4L1177.1,1024.4L1177.1,1024.4z"/>
<path class="st19" d="M1180.2,1021.3L1180.2,1021.3L1180.2,1021.3L1180.2,1021.3z"/>
<path class="st19" d="M1162.8,1149.4C1162.8,1149.4,1162.8,1149.4,1162.8,1149.4L1162.8,1149.4L1162.8,1149.4z"/>
<path class="st19" d="M1178.1,1023.3L1178.1,1023.3L1178.1,1023.3L1178.1,1023.3z"/>
<path class="st19" d="M1179.2,1022.3L1179.2,1022.3L1179.2,1022.3L1179.2,1022.3z"/>
<path class="st19" d="M1154.6,1141.2C1154.6,1141.2,1154.6,1141.2,1154.6,1141.2L1154.6,1141.2L1154.6,1141.2z"/>
<path class="st19" d="M1160.7,1147.4C1160.7,1147.4,1160.7,1147.4,1160.7,1147.4L1160.7,1147.4L1160.7,1147.4z"/>
<path class="st19" d="M1159.7,1146.3L1159.7,1146.3L1159.7,1146.3L1159.7,1146.3z"/>
<path class="st19" d="M1161.8,1148.4C1161.8,1148.4,1161.8,1148.3,1161.8,1148.4L1161.8,1148.4L1161.8,1148.4z"/>
<path class="st19" d="M1157.7,1144.3L1157.7,1144.3L1157.7,1144.3L1157.7,1144.3z"/>
<path class="st19" d="M1158.7,1145.3L1158.7,1145.3L1158.7,1145.3L1158.7,1145.3z"/>
<path class="st19" d="M1156.6,1143.2L1156.6,1143.2L1156.6,1143.2L1156.6,1143.2z"/>
<path class="st19" d="M1155.6,1142.2L1155.6,1142.2L1155.6,1142.2L1155.6,1142.2z"/>
<path class="st19" d="M1178.3,1023.3c0,0,116.6,120.7-2.1,2.1c-0.1,0.5-0.5,0.9-1,1v-0.1c-3.8,3.8-7.6,7.6-11.4,11.4
	c-0.5,0.1-0.9,0.5-1,1c-0.5,0.1-0.9,0.5-1,1"/>
<path class="st19" d="M1151.6,1049.8c-0.6,0.2-1,0.6-1.2,1.1l0,0c-0.3,0.2-0.6,0.3-0.9,0.6c-11.8,11.7-23.5,23.5-35.3,35.2
	c-1.4,1.3-2.2,3.1-2,5c0.1,1,0.1,2.1,0,3.1c-0.4,3,0.9,5.1,3,7.2c11.3,11.2,22.6,22.5,33.8,33.8c0.7,0.7,1.6,1.3,2.3,2
	c0.6,0.1,1.2,0.5,1.3,1.1c0.7,0.7,1.3,1.3,2,2c0.5,0.1,0.9,0.5,1,1c0.5,0.1,0.9,0.5,1,1c0.5,0.1,0.9,0.5,1,1c0.5,0.1,0.9,0.5,1,1
	c0.5,0.1,0.9,0.5,1,1c0.5,0.1,0.9,0.5,1,1c0.5,0.1,0.9,0.5,1,1c0.5,0.1,0.9,0.5,1,1c0.5,0.1,0.9,0.5,1,1c0.5,0.1,0.9,0.5,1,1
	c0.5,0.1,0.9,0.5,1,1c0.5,0.1,0.9,0.5,1,1c0.5,0.1,0.9,0.5,1,1c0.5,0.1,0.9,0.5,1,1c0.5,0.1,0.9,0.5,1,1c0.5,0.1,0.9,0.5,1,1
	c0.5,0.1,0.9,0.5,1,1c0.5,0.1,0.9,0.5,1,1c0.5,0.1,0.9,0.5,1,1c0.5,0.1,0.9,0.5,1,1c0.7,0.7,1.4,1.4,2.1,2.1c0.5,0.1,0.9,0.5,1,1
	c0.5,0.1,0.9,0.5,1,1c0.5,0.1,0.9,0.5,1,1c0.5,0.1,0.9,0.4,1,0.9v0.3c6.7,7.5,14.1,14.3,21.2,21.5c0.8,0.9,2,1.4,3.2,1.4
	c1.2-0.1,2.4-0.1,3.6,0c3.2,0.4,5.4-0.8,7.7-3.1c10-10.3,20.2-20.3,30.4-30.5c0.8-0.8,1.6-1.8,2.3-2.7l0,0c0.9-0.8,1.9-1.5,2.7-2.3
	c16.7-16.7,33.4-33.4,50.2-50.2c0.6-0.6,1.2-1.2,1.8-1.8c0.5-0.5,0.8-1.1,1-1.7c0.5-2.7,0.7-5.4,0.6-8.2c-0.2-0.7-0.5-1.3-1-1.7
	c-0.8-0.9-1.7-1.7-2.5-2.6c-16.2-16.2-32.5-32.5-48.7-48.7c-1.1-1.1-2.3-2-3.4-3.1l0,0c-0.5-0.7-1-1.4-1.6-2l-33.7-33.7h-11.1
	c-5.7,5.7-11.4,11.3-17.1,17c-1.7,1.7-3.2,3.5-4.9,5.2v0.3c-0.1,0.5-0.5,0.8-1,0.9"/>
<path class="st19" d="M1155.6,1045.7c-0.5,0.1-0.9,0.5-1,1c-0.5,0.1-0.9,0.5-1,1"/>
<path class="st19" d="M1159.7,1041.7c-0.5,0.1-0.9,0.5-1,1"/>
<path class="st19" d="M1176.2,1025.3c-0.1,0.6-0.5,1.1-1.1,1.2C1175.1,1025.8,1175.6,1025.4,1176.2,1025.3z"/>
<path class="st19" d="M1161.7,1148.3c0.6,0.1,1.1,0.5,1.2,1.1C1162.2,1149.3,1161.7,1148.9,1161.7,1148.3z"/>
<path class="st19" d="M1177.2,1024.3c-0.1,0.6-0.5,1.1-1.1,1.2C1176.2,1024.8,1176.6,1024.3,1177.2,1024.3z"/>
<path class="st11" d="M1951.8,1581.7c-0.1,0.6-0.5,1-1,1.2C1950.8,1582.3,1951.2,1581.8,1951.8,1581.7z"/>
<path class="st19" d="M1160.6,1147.3c0.6,0.1,1.1,0.5,1.2,1.1C1161.2,1148.3,1160.7,1147.9,1160.6,1147.3z"/>
<path class="st19" d="M1159.6,1146.2c0.6,0.1,1.1,0.5,1.2,1.1C1160.1,1147.3,1159.7,1146.8,1159.6,1146.2z"/>
<path class="st19" d="M1178.2,1023.2c-0.1,0.6-0.5,1.1-1.1,1.2C1177.2,1023.8,1177.6,1023.3,1178.2,1023.2z"/>
<path class="st19" d="M1179.3,1022.2c-0.1,0.6-0.5,1.1-1.1,1.2C1178.2,1022.8,1178.7,1022.3,1179.3,1022.2z"/>
<path class="st6" d="M2175.4,1679.8l1,1.2C2175.8,1680.8,2175.4,1680.3,2175.4,1679.8z"/>
<path class="st19" d="M1180.3,1021.2c-0.1,0.6-0.5,1.1-1.1,1.2C1179.2,1021.7,1179.7,1021.3,1180.3,1021.2z"/>
<path class="st19" d="M1158.6,1145.2c0.6,0.1,1.1,0.5,1.2,1.1C1159.1,1146.3,1158.6,1145.8,1158.6,1145.2z"/>
<path class="st19" d="M1157.5,1144.2c0.6,0.1,1.1,0.5,1.2,1.1C1158.1,1145.2,1157.6,1144.8,1157.5,1144.2z"/>
<path class="st19" d="M1156.5,1143.1c0.6,0.1,1.1,0.5,1.2,1.1C1157.1,1144.2,1156.6,1143.7,1156.5,1143.1z"/>
<path class="st19" d="M1181.3,1020.1c-0.1,0.6-0.5,1.1-1.1,1.2C1180.3,1020.7,1180.7,1020.2,1181.3,1020.1z"/>
<path class="st19" d="M1155.5,1142.1c0.6,0.1,1.1,0.5,1.2,1.1C1156,1143.2,1155.6,1142.7,1155.5,1142.1z"/>
<path class="st19" d="M1154.4,1141.1c0.6,0.1,1.1,0.5,1.2,1.1C1155,1142.1,1154.5,1141.7,1154.4,1141.1z"/>
<path class="st19" d="M1175,1161.7c0.6,0,1.1,0.5,1.1,1.1C1175.6,1162.7,1175.1,1162.3,1175,1161.7z"/>
<path class="st35" d="M1408.1,1237.8h27.8c1.4,0,2.7,0,4.1,0.1c1-0.1,1.9,0.7,2,1.8c0,0,0,0.1,0,0.1c0.1,1.7,0.1,3.4,0.1,5.1v462.2
	c0,1.9,0,3.8-0.1,5.7c0,1.1-0.9,1.9-2,1.9c-0.3,0-0.7,0-1,0l-30.9-0.1C1408.1,1555.7,1408.1,1396.7,1408.1,1237.8z"/>
<path class="st19" d="M1185.6,1237.8c19.4,0,38.8,0,58.2,0c5.9,0,5.7-0.1,5.7,5.6v463.8c0,1.7,0,3.4-0.1,5.2
	c-0.1,1.9-0.6,2.3-2.6,2.4c-0.8,0-1.7,0-2.6,0h-55.1c-1.2,0-2.4-0.1-3.6-0.2C1185.6,1555.7,1185.6,1396.7,1185.6,1237.8z"/>
<linearGradient id="SVGID_1_" gradientUnits="userSpaceOnUse" x1="176.0253" y1="1317.2996" x2="1588.13" y2="1317.2996" gradientTransform="matrix(1 0 0 -1 0 2500)">
	<stop  offset="0" style="stop-color:#662D91"/>
	<stop  offset="1" style="stop-color:#936C8F"/>
</linearGradient>
<path class="st36" d="M868.7,1803.6c-343.1-7.3-615.4-291.4-608.1-634.6C268,825.9,552.1,553.6,895.2,561
	c335.3,7.2,604.5,279.1,608.2,614.5h84.8c-4.2-389.9-323.7-702.6-713.6-698.4c-280.8,3-533.1,172.2-642.6,430.8
	c-151.9,358.9,15.9,772.9,374.8,924.8c83,35.1,171.9,54,261.9,55.7L868.7,1803.6z"/>
</svg>