<svg id="Layer_1" data-name="Layer 1" xmlns="http://www.w3.org/2000/svg" viewBox="0 0 2500 2500"><defs><style>.cls-1{fill:#90688f;}.cls-2{fill:#9a74ac;}.cls-3{fill:#835690;}.cls-4{fill:#8a5f8f;}.cls-5{fill:#845790;}.cls-6{fill:#7b4a90;}.cls-7{fill:#8d648f;}.cls-8{fill:#7d4d90;}.cls-9{fill:#764390;}.cls-10{fill:#8c638f;}.cls-11{fill:#784690;}.cls-12{fill:#895e8f;}.cls-13{fill:#8b618f;}.cls-14{fill:#815390;}.cls-15{fill:#8f668f;}.cls-16{fill:#7f5090;}.cls-17{fill:#855990;}.cls-18{fill:#875c90;}.cls-19{fill:#7e4f90;}.cls-20{fill:#774490;}.cls-21{fill:#6f3991;}.cls-22{fill:#8355a0;}.cls-23{fill:#e1d6e8;}.cls-24{fill:#bea5ce;}.cls-25{fill:#9a75b2;}.cls-26{fill:#956eaf;}.cls-27{fill:#dcd0e5;}.cls-28{fill:#b69bc8;}.cls-29{fill:#723d90;}.cls-30{fill:#703b91;}.cls-31{fill:#733f90;}.cls-32{fill:#6c3591;}.cls-33{fill:#6d3691;}.cls-34{fill:#6f3a91;}.cls-35{fill:#6a3391;}.cls-36{fill:#7c4b90;}</style></defs><path class="cls-1" d="M2118.87,1523.66c3.38,3.6,5.88,7.86,8.72,11.85q27.4,38.54,54.68,77.17c1.14,1.61,2.23,3.26,3.35,4.89v1.1c-5.37,5.26-2.95,4.73-11.22,4.75q-77.18.18-154.34.31c-2.15,0-4.37.45-6.45-.55,1.6-1.88,3.85-1.84,6-1.84,10.11,0,20.21-.23,30.31.08,19.44-.3,38.89-.06,58.33-.13,8.89,0,8.9,0,8.91-9.14q0-39.81,0-79.63C2117.19,1529.5,2116.56,1526.28,2118.87,1523.66Z"/><path class="cls-2" d="M959.64,860.55c0,.38-.1.76-.14,1.14a10.83,10.83,0,0,1-11.75,0l-.15-1.14Z"/><path class="cls-3" d="M1439.75,1102.35c5.89-.18,11.56,1.32,17.27,2.38a252.5,252.5,0,0,1,54.3,16.21,196.4,196.4,0,0,1,28.5,15,15.27,15.27,0,0,1,1.65,1.38c2.11,3.08,1.77,6.6,1.77,10q0,73,0,145.9,0,159.57,0,319.13c0,3.57.77,7.32-1.44,10.63-3.7,1.21-7.51.57-11.25.52-13.88-.17-27.77.69-41.63-.45-1.89-.53-2.79-2.24-4.14-3.41a4.15,4.15,0,0,1-1.44-3.39c0-1.64,0-3.28,0-4.92q0-124.86,0-249.73a172.37,172.37,0,0,0-6.37-48,99.31,99.31,0,0,0-17.2-34.48,79.76,79.76,0,0,0-18.86-17.24c-1.51-1-3-2.08-4.43-3.12,1.49-3.62,1.57-7.41,1.57-11.24q0-67.89,0-135.77C1438,1108.55,1437.39,1105.16,1439.75,1102.35Z"/><path class="cls-4" d="M1660.72,1116.55a2,2,0,0,1,1.74-1.12c1.64,0,3.28-.08,4.92-.08,52.28,0,104.56.1,156.84-.11,5.92,0,10.45,2.62,15.22,5.16,1.18.63,2,2.09,2.8,3.27q10.69,15.19,21.33,30.42,8.15,11.64,16.26,23.3c.72,1,1.68,1.94,1.9,3.28a13.33,13.33,0,0,1,.87,4.79c-.74,114.33-.12,228.66-.36,343,0,4.19.89,8.33.44,12.53-3.21,5.94-7.44,11.2-11.26,16.74-13,18.88-26.24,37.63-39.24,56.53a19.68,19.68,0,0,1-7.29,6.28,23.43,23.43,0,0,1-12,3.14c-1.81-.06-3.64,0-5.46,0q-75.1,0-150.22,0c-2.12,0-4.36.6-6.36-.69,1.71-1.74,3.95-1.71,6.12-1.71,29.62,0,59.23-.24,88.85.1,18.94-.32,37.89-.05,56.83-.14,8,0,8.22-.2,8.22-8.3q0-111.8,0-223.59a11.68,11.68,0,0,0-.46-3.77c2.82-5.32,6.78-9.87,10.12-14.85,2-3,4.24-5.91,6.32-8.9,2.29-3.29,2.51-2.9-.15-6.55q-7.21-9.93-14.44-19.87c-.74-1-1.7-1.91-1.93-3.24.87-3.59.52-7.25.53-10.88q0-97,0-194.09c0-.91,0-1.82,0-2.73-.2-5.6-.67-6.16-6.46-6.18-17.67-.08-35.34,0-53,0-2.18,0-4.37,0-6.55-.14-26,.32-52,.11-78,.1C1664.68,1118.26,1662.43,1118.3,1660.72,1116.55Z"/><path class="cls-5" d="M1541.44,1622.87q0-170.61,0-341.21,0-72.18,0-144.36c3.1,1.19,5.61,3.34,8.25,5.24a186.39,186.39,0,0,1,59.91,71.79,22.06,22.06,0,0,1,.88,2.56,125.5,125.5,0,0,1,.55,15.27q0,189.81,0,379.61c0,11.8,0,11.8-11.84,11.8-17.5,0-35,0-52.5,0C1545,1623.54,1543.06,1624.18,1541.44,1622.87Z"/><path class="cls-6" d="M1110.49,1623.07c-1.89-.52-2.78-2.24-4.14-3.41a4.12,4.12,0,0,1-1.35-3.43c0-1.64,0-3.28,0-4.92V1127.24a12.81,12.81,0,0,0,0-1.64c-.53-4,.78-7.11,4.44-9.08,5.39-1.16,10.84-.5,16.26-.46,13.25.1,26.51-.61,39.75.39,2.2,2.89,1.55,6.28,1.55,9.5q.07,62.85,0,125.7,0,180.36,0,360.72c0,3.57.77,7.33-1.44,10.63-3.51,1.24-7.15.5-10.72.53-13,.11-26,.06-39,0C1114,1623.55,1112.2,1624,1110.49,1623.07Z"/><path class="cls-7" d="M2050,1622.89l-28.24.15c-2.71,0-5.42.09-8.14.14-4.08-.57-7.32-3.06-10.86-4.83a7,7,0,0,1-2.13-2.43q-9.69-13.89-19.33-27.8a4.07,4.07,0,0,1-.33-1c.73-3.42.54-6.89.54-10.34q0-217.63,0-435.25c0-1.82.23-3.65-.48-5.4,2.74-5.11,6.38-9.61,9.68-14.34a5.49,5.49,0,0,1,2-1.74c2.6-1.24,5-3,7.85-3.59,16.54-.76,33.07-.65,49.61,0,2,2.31,1.61,5.14,1.61,7.83.08,53.72-.07,107.44.1,161.16a28.12,28.12,0,0,1-.6,5.42c-2.92,5.26-6.8,9.86-10.31,14.71q-17.91,24.78-36,49.47c-.64.88-1.23,1.8-1.79,2.73a1.88,1.88,0,0,0,.07,2.07q1.5,2.28,3.08,4.5,21.3,30.09,42.59,60.17c.83,1.18,1.5,2.47,2.25,3.71a30.93,30.93,0,0,1,.63,7.06q-.11,88.85-.07,177.71C2051.74,1616.31,2052.55,1619.92,2050,1622.89Z"/><path class="cls-8" d="M1165.24,1116.54l-55.8,0a2,2,0,0,1,1.74-1.09c1.46,0,2.91-.08,4.37-.08h130.09a5.66,5.66,0,0,0,1.09,0c4.12-.9,6.37,1.83,8.69,4.44.95,1.07.85,2.36.86,3.62,0,3.65,0,7.29,0,10.94,0,1.46.75,1.83,2.13,1.23,2-.87,3.69-2.37,5.9-2.77,3.33-1.25,4.76.41,5.21,3.47a52.51,52.51,0,0,1,.25,7.63q0,64.42-.07,128.84c0,4.46,1.78,9.06-.58,13.43-3,3-6,5.86-8.83,8.89-4.85,5.11-4,3.61-4,10q0,152.82,0,305.65a27,27,0,0,0,0,3.82c.61,4.21-2.41,6.2-5,8.39a4,4,0,0,1-2.09.47c-.91.08-1.82,0-2.73,0q-65.33.12-130.64.21c-1.78,0-3.65.5-5.32-.62q24.12,0,48.24,0c2.17,0,4.34-.1,6.5-.15,2.17-1.76,4.79-1.56,7.32-1.58q10.67-.11,21.32,0c3.85,0,5.79-1.49,5.66-5.47-.06-2,0-4,0-6q0-240,0-480.08c0-12.29.48-11.35-11.2-11.41-5.47,0-10.93,0-16.4,0C1169.58,1118.25,1167.18,1118.28,1165.24,1116.54Z"/><path class="cls-9" d="M883.84,1623.15c-2.49-.61-3.67-2.81-5.31-4.44a3.35,3.35,0,0,1-.73-2.55c0-1.64,0-3.28,0-4.92V1127.52a7.93,7.93,0,0,0,0-1.09c-.73-4.48,1-7.76,4.85-10,15.51-.63,31-.67,46.55,0,2.14,2.69,1.58,5.9,1.58,8.94q.08,50.55,0,101.12,0,193,0,385.91c0,3.57.78,7.33-1.45,10.63-7.37,1.22-14.79.47-22.18.49C899.38,1623.53,891.59,1624.13,883.84,1623.15Z"/><path class="cls-10" d="M1981,1136.11c1.11.27,2.14.68,2.21,2,.09,1.81.1,3.64.1,5.46v289.59q0,73.21,0,146.44c0,1.82,0,3.64-.11,5.45-.07,1.34-1.13,1.74-2.22,2h.08c-.16-.55-.68-.82-1-1.25-2.51-2.41-4.18-5.46-6.14-8.28q-27.3-39.11-54.48-78.29c-.93-1.33-1.91-2.64-3-3.9-.57-.7-1.34-.17-2-.09-.72-4.54.45-9,.44-13.54q-.15-120,0-240c0-4.88-1.45-9.68-.54-14.57,1,.54,1.93.85,2.78-.4,2.13-3.17,4.35-6.27,6.54-9.4q26.43-37.74,52.87-75.48c.61-.88,1.38-1.65,2.08-2.47.94-.37.74-1.51,1.41-2.06l0,0c.31-.43.79-.72,1-1.24Z"/><path class="cls-11" d="M883.84,1623.15q19-.06,38.09-.13c2.36,0,4.72-.1,7.07-.16,2.53-2,5.54-1.56,8.42-1.57,16.76,0,33.53,0,50.29,0,6.76,0,7.17-.49,7.32-7.06,0-1.45,0-2.91,0-4.37V1129.7c0-12.35.5-11.34-11.21-11.38-15.49,0-31,0-46.47,0-2.88,0-5.89.37-8.35-1.75H888.64c-2,0-4-.09-6-.14a2.35,2.35,0,0,1,1.85-1c1.46,0,2.92-.06,4.37-.06h129.57a5.76,5.76,0,0,0,1.1,0c4.35-.91,6.66,2,9.08,4.79a3.72,3.72,0,0,1,.82,2.53c0,1.46,0,2.92,0,4.38v485.07a9,9,0,0,0,0,1.64c.84,4.34-2,6.71-4.87,9a4.94,4.94,0,0,1-2.54.82,42.24,42.24,0,0,1-4.36.09q-64,0-127.93,0C887.78,1623.68,885.74,1624.1,883.84,1623.15Z"/><path class="cls-12" d="M1810.45,1385.62c1.16.22,2.1.69,2.15,2s.08,2.92.08,4.37v224c0,1.46,0,2.92,0,4.37-.12,2-.64,2.42-2.77,2.57-.72,0-1.45,0-2.18,0h-59c-.91,0-1.82-.1-2.72-.15-2.43-2.79-1.71-6.21-1.71-9.41q-.09-60,0-120.1c0-4.55-.07-9.1-.42-13.63a21.67,21.67,0,0,1,1.28-2.38q31-43.81,62-87.6a26.25,26.25,0,0,1,1.79-2c1.18-.22,1-1.47,1.56-2.12Z"/><path class="cls-12" d="M1744.88,1116.54H1806c7.18,0,6.67-.34,6.67,7V1325c0,1.27,0,2.54,0,3.82a3.84,3.84,0,0,1-2.29,3.44l.06,0c-.18-.54-.66-.84-1-1.24h0c-.65-.56-.38-1.72-1.35-2.07l.13.11a2.19,2.19,0,0,0-1.08-1.27l.06.07a11.28,11.28,0,0,0-1-1.22c-4.62-5.17-8.34-11-12.42-16.59q-24.36-33.3-48.53-66.75a28.86,28.86,0,0,1-1.62-2.81c-1.1-15.24-.41-30.5-.49-45.76-.13-23.08-.06-46.16,0-69.24C1743.14,1122.37,1742.64,1119.17,1744.88,1116.54Z"/><path class="cls-13" d="M1914.36,1227.19a10.19,10.19,0,0,0,1.06,2.45,6,6,0,0,1,1.16,4.1c0,.72,0,1.45,0,2.18q0,125.58.05,251.17c0,3-.38,5.74-2.18,8.19-1.3,3.22-3.66,5.77-5.59,8.57Q1897,1521,1885,1538.09c-.71,1-1.57,1.93-2.36,2.9a17,17,0,0,1-2.23-9.38q.08-170.35,0-340.71c0-3.52.91-6.82,1.3-10.23,3.55,3.64,6,8.1,8.93,12.21,7.42,10.46,14.73,21,22.06,31.53C1913.34,1225.29,1913.82,1226.26,1914.36,1227.19Z"/><path class="cls-14" d="M1439.75,1102.35v148.92c0,1.45,0,2.91,0,4.36-.09,2.51-.11,2.51-3.3,3.14-2.12-1-4.23-2-6.36-3a116.63,116.63,0,0,0-32.77-9.21c-10.28-1.4-20.57-1.32-30.89-1.06l-6.5.13c.35-2.86,2.8-2.59,4.59-2.73,3.56-.29,4.65-2.28,4.59-5.45,0-1.09,0-2.18,0-3.28,0-40.78-.06-81.56.09-122.34,0-4.72-.62-8.57-5.24-10.78a9.89,9.89,0,0,1,2-.68,269,269,0,0,1,47.82-.66q9.76.76,19.53,1.5A23.25,23.25,0,0,1,1439.75,1102.35Z"/><path class="cls-15" d="M2050,1622.89q0-93.66,0-187.31c0-2.53-.33-5.13,1.18-7.42a19.85,19.85,0,0,1,1.82,2q31.66,44.68,63.28,89.39c.94,1.33,1.72,2.76,2.58,4.14q0,47,0,94c0,.73,0,1.46,0,2.18-.14,2.66-.53,3-3.33,3.16-.55,0-1.09,0-1.64,0l-61.75,0C2051.45,1623,2050.72,1622.94,2050,1622.89Z"/><path class="cls-16" d="M1364,1101.07l2.72.15c4.08.22,4.12.22,4.16,4.52,0,4.55,0,9.1,0,13.65v118.47c0,6.94.41,6.68-6.39,6.69-1.58,0-3.33-.47-4.55,1.1-2.71,1.27-5.7,1-8.54,1.48a168.82,168.82,0,0,0-45.8,15.07,22.41,22.41,0,0,1-2.53.91c-2.15-3.48-1.71-7.38-1.72-11.17q-.06-59.54,0-119.07c0-5.46,0-10.92-.53-16.36,5.87-2.94,12.2-4.58,18.43-6.48a271.65,271.65,0,0,1,37.7-8.46C1359.23,1101.21,1361.61,1101.23,1364,1101.07Z"/><path class="cls-17" d="M1541.44,1622.87c2.73.05,5.46.16,8.19.16q26.22,0,52.44,0c7.76,0,7.19.52,7.19-7q0-107.1,0-214.19,0-88.52,0-177c0-2.72-.37-5.5,1.24-8,1.61,1.81,2.28,4.11,3.21,6.27a248.8,248.8,0,0,1,16.46,57,336,336,0,0,1,4.44,56.57q-.12,137,0,273.93a30.41,30.41,0,0,0,0,3.82c.37,2.83-.79,4.84-2.82,6.71a7.33,7.33,0,0,1-5.31,2.25c-7.28,0-14.57.22-21.85.22q-54.95,0-109.87,0c-2,0-4,.57-5.86-.63l46,0C1537.12,1623,1539.28,1622.92,1541.44,1622.87Z"/><path class="cls-15" d="M2051.26,1290.8a10,10,0,0,1-1.27-5.22c.09-2,0-4,0-6v-163c2.62-1.12,5.38-.49,8.06-.5,18.17-.07,36.35,0,54.52,0,6.24,0,6.85.44,6.92,6.75.17,16.72.12,33.44,0,50.17,0,7.81.28,15.61.42,23.41-4.22,7-9.39,13.4-14.18,20q-25.59,35.42-51.38,70.69A14.32,14.32,0,0,1,2051.26,1290.8Z"/><path class="cls-18" d="M1743.79,1479.74a6.15,6.15,0,0,1,2.17,4.8c0,.91,0,1.83,0,2.74q0,67.8,0,135.6c-1.82,0-3.64.15-5.46.15h-89.61c-2.35-.9-3.42-3.12-5.05-4.39a7.08,7.08,0,0,1,1.82-3.74q44.7-63.11,89.43-126.2c.62-.88,1.4-1.64,2.1-2.46a12.06,12.06,0,0,0,2.36-3.3l0,0a2.41,2.41,0,0,0,1.06-1.27l-.12.11c.94-.38.69-1.52,1.33-2.09Z"/><path class="cls-18" d="M1744.88,1116.54q0,58.86,0,117.71c0,2.09.72,4.42-1.22,6.16l.06-.07c-.14-.6-.63-.9-1-1.26l0,0c-.78-1.1-1.26-2.42-2.38-3.27-2.66-2.52-4.5-5.67-6.63-8.6q-37.39-51.37-74.73-102.79c-2.91-4-3.39-3.28.87-7.36a5,5,0,0,1,.93-.54Z"/><path class="cls-19" d="M1300.78,1116.51c1.15.21,2.12.66,2.18,2,.06,1.63.08,3.27.08,4.91q0,64.72,0,129.45c0,2.9-.23,5.81.46,8.68.1.46-.3,1-.47,1.55a14.76,14.76,0,0,1-1.72,1.25,175.35,175.35,0,0,0-29.53,20c-.82.68-1.75,1.24-2.62,1.86a8.28,8.28,0,0,0-.09-2.18c-1.37-4.24-1-8.61-1-13q0-65.2,0-130.42c0-1.45,0-2.91,0-4.36-.1-2.73-.12-2.73-3.67-3.45a4.1,4.1,0,0,1,.78-.73,268.66,268.66,0,0,1,34.57-15.47A4.23,4.23,0,0,1,1300.78,1116.51Z"/><path class="cls-1" d="M2120,1196.34c-1.8-2.87-2.22-6-2.2-9.38.09-21.13.05-42.27,0-63.4,0-1.64,0-3.28-.09-4.92a2,2,0,0,0-2.14-2c-1.46-.08-2.92-.08-4.37-.08H2050l-49.47-.1a3.11,3.11,0,0,1,2.42-1c1.63,0,3.27-.05,4.91-.05l156.14,0a8.15,8.15,0,0,0,1.64,0c4.11-.85,6.39,1.8,8.63,4.51a1.68,1.68,0,0,1,.07,2c-.58.93-1.19,1.83-1.83,2.72q-24.37,33.56-48.78,67.11C2122.57,1193.33,2121.23,1194.81,2120,1196.34Z"/><path class="cls-12" d="M1741.55,1482.94a3,3,0,0,1-2.36,3.3A5.47,5.47,0,0,1,1741.55,1482.94Z"/><path class="cls-12" d="M1740.28,1235.84a3,3,0,0,1,2.38,3.27A5.45,5.45,0,0,1,1740.28,1235.84Z"/><path class="cls-12" d="M1743.79,1479.74c0,1-.27,1.79-1.33,2.09A2.41,2.41,0,0,1,1743.79,1479.74Z"/><path class="cls-4" d="M1810.47,1385.61c0,1.07-.32,1.94-1.56,2.12A3.36,3.36,0,0,1,1810.47,1385.61Z"/><path class="cls-4" d="M1808.06,1328.87c1.07.28,1.3,1.12,1.35,2.07A2.41,2.41,0,0,1,1808.06,1328.87Z"/><path class="cls-7" d="M1980,1137.38c-.07,1-.35,1.78-1.41,2.06A2.79,2.79,0,0,1,1980,1137.38Z"/><path class="cls-20" d="M911.24,1029.17a1.34,1.34,0,0,1,1.22,1.21A1.44,1.44,0,0,1,911.24,1029.17Z"/><path class="cls-20" d="M912.34,1030.27a1.32,1.32,0,0,1,1.21,1.21A1.43,1.43,0,0,1,912.34,1030.27Z"/><path class="cls-20" d="M913.43,1031.36a1.34,1.34,0,0,1,1.22,1.21A1.43,1.43,0,0,1,913.43,1031.36Z"/><path class="cls-20" d="M914.52,1032.45a1.34,1.34,0,0,1,1.22,1.21A1.43,1.43,0,0,1,914.52,1032.45Z"/><path class="cls-20" d="M915.62,1033.55a1.33,1.33,0,0,1,1.21,1.21A1.43,1.43,0,0,1,915.62,1033.55Z"/><path class="cls-20" d="M916.71,1034.64a1.34,1.34,0,0,1,1.22,1.21A1.43,1.43,0,0,1,916.71,1034.64Z"/><path class="cls-20" d="M894.84,1012.76a1.33,1.33,0,0,1,1.21,1.21A1.42,1.42,0,0,1,894.84,1012.76Z"/><path class="cls-20" d="M918.9,1036.83a1.33,1.33,0,0,1,1.21,1.21A1.43,1.43,0,0,1,918.9,1036.83Z"/><path class="cls-20" d="M920,1037.92a1.34,1.34,0,0,1,1.22,1.21A1.43,1.43,0,0,1,920,1037.92Z"/><path class="cls-20" d="M921.08,1039a1.34,1.34,0,0,1,1.22,1.21A1.44,1.44,0,0,1,921.08,1039Z"/><path class="cls-20" d="M922.18,1040.11a1.34,1.34,0,0,1,1.22,1.21A1.43,1.43,0,0,1,922.18,1040.11Z"/><path class="cls-20" d="M923.27,1041.21a1.33,1.33,0,0,1,1.22,1.21A1.45,1.45,0,0,1,923.27,1041.21Z"/><path class="cls-20" d="M893.74,1011.67a1.34,1.34,0,0,1,1.22,1.21A1.44,1.44,0,0,1,893.74,1011.67Z"/><path class="cls-20" d="M892.46,1010.55a1.55,1.55,0,0,1,1.43,1.23A1.87,1.87,0,0,1,892.46,1010.55Z"/><path class="cls-7" d="M1981.05,1136.1l-1,1.24A1.35,1.35,0,0,1,1981.05,1136.1Z"/><path class="cls-20" d="M910.15,1028.08a1.34,1.34,0,0,1,1.22,1.21A1.43,1.43,0,0,1,910.15,1028.08Z"/><path class="cls-20" d="M909.05,1027a1.34,1.34,0,0,1,1.22,1.21A1.43,1.43,0,0,1,909.05,1027Z"/><path class="cls-12" d="M1742.64,1239.08a1.6,1.6,0,0,1,1,1.26A1.4,1.4,0,0,1,1742.64,1239.08Z"/><path class="cls-4" d="M1806.2,1326.56l1,1.22A1.36,1.36,0,0,1,1806.2,1326.56Z"/><path class="cls-4" d="M1807.11,1327.71a1.51,1.51,0,0,1,1.08,1.27A1.38,1.38,0,0,1,1807.11,1327.71Z"/><path class="cls-20" d="M908,1025.89a1.34,1.34,0,0,1,1.22,1.21A1.44,1.44,0,0,1,908,1025.89Z"/><path class="cls-4" d="M1809.42,1331l1,1.24A1.37,1.37,0,0,1,1809.42,1331Z"/><path class="cls-20" d="M906.87,1024.8a1.32,1.32,0,0,1,1.21,1.21A1.44,1.44,0,0,1,906.87,1024.8Z"/><path class="cls-20" d="M905.77,1023.7a1.34,1.34,0,0,1,1.22,1.21A1.44,1.44,0,0,1,905.77,1023.7Z"/><path class="cls-20" d="M904.68,1022.61a1.34,1.34,0,0,1,1.22,1.21A1.43,1.43,0,0,1,904.68,1022.61Z"/><path class="cls-21" d="M584.52,1635.06c-3.74,1.53-7.79,1.33-11.68,2-3.71.68-7.51.94-11.26,1.38-1.38.76-2.87.29-4.31.42h-8.61c-1.89.26-3.9-.58-5.71.56H512.33a1.29,1.29,0,0,1,.54-1.77c4.14-1.1,5.46-3.8,5.45-8q-.15-64.39,0-128.79c0-3.18-1.37-6-1.61-9,3.59.44,7.17,1,10.77,1.31,18.7,1.76,36.9-.09,54.32-7.57a9.08,9.08,0,0,1,1.58-.36c.6-.64,1.66-.37,2.21-1.12h0c2.38,0,2.91,1.86,3.47,3.59a14.7,14.7,0,0,1,.48,4.33q.09,66.95,0,133.87C589.5,1629.78,589.27,1633.68,584.52,1635.06Z"/><path class="cls-22" d="M543,1639.45c1.58-1.78,3.65-.88,5.53-1,.32.24.42.48.29.7s-.23.32-.35.32Z"/><path class="cls-23" d="M557.24,1638.52l4.34,0c0,.33,0,.66,0,1h-4.38c-.37-.23-.48-.45-.34-.65S557.1,1638.52,557.24,1638.52Z"/><path class="cls-24" d="M557.24,1638.52c0,.31-.06.62-.07.93H552.8c-.38-.25-.49-.47-.33-.67a.57.57,0,0,1,.43-.27Z"/><path class="cls-25" d="M552.9,1638.51a6,6,0,0,0-.1.94h-4.38c0-.34,0-.68.06-1Z"/><path class="cls-26" d="M512.3,1638.37a9.74,9.74,0,0,1,0,1.08H508a1.06,1.06,0,0,1,.24-1.54A3.21,3.21,0,0,1,512.3,1638.37Z"/><path class="cls-27" d="M501.39,1639.45c0-.33,0-.67,0-1,1.22-1.33,2.63-1.27,4.12-.55a1.08,1.08,0,0,1,.28,1.56Z"/><path class="cls-28" d="M505.77,1639.45c0-.29,0-.59-.09-.88a1.43,1.43,0,0,1,2.21-.11,6.59,6.59,0,0,1,.07,1Z"/><path class="cls-29" d="M759.61,1507.31c-.41,1.19-.71,2.44-1.23,3.58-14.94,32.63-36.66,59.79-65.56,81.13-1,.75-2.15,1.35-3.22,2-1.15-1.41-.89-3.09-.89-4.71q.35-356.1.13-712.19c0-3.4-.72-7,1.51-10.06,1.54-.83,3.22-.47,4.83-.47q29.24,0,58.47,0c5.59,0,6.15.56,6.48,6.17.13,2.18.06,4.37.06,6.56q0,308.82,0,617.64C760.21,1500.42,759.88,1503.86,759.61,1507.31Z"/><path class="cls-30" d="M690.58,867.31q0,74.12,0,148.22v569.89c0,2.91.16,5.84-1,8.61-1,.8-1.91,1.68-3,2.38a232.77,232.77,0,0,1-61.72,29.53,13.5,13.5,0,0,1-2.13.32c-.95-1.69-.7-3.54-.7-5.35.11-59.93-.11-119.86.13-179.79a55.94,55.94,0,0,0-.73-6.5c0-2.79,1.06-5.35,1.64-8a236,236,0,0,0,4.13-27c1.76-17.79,2-35.63,2-53.49q-.06-232.85,0-465.69v-3.28c0-6.08,0-6.08,5.56-10.08,5.37-1.15,10.82-.43,16.22-.49,11.44-.13,22.87-.07,34.31,0C687.1,866.63,689,865.94,690.58,867.31Z"/><path class="cls-31" d="M690.58,867.31c-2.36-.06-4.73-.18-7.09-.18q-24.33,0-48.66,0c1.84-1.21,3.9-.61,5.85-.62q50.84-.06,101.67,0c9.65,0,19.31.33,29,.08,4.13-.11,6.33,2.17,8.55,4.84a3.75,3.75,0,0,1,.64,2c.1,1.45.06,2.91.06,4.37q0,263.82,0,527.63c0,33.69-6,66.29-18.74,97.55-.62,1.5-1,3.13-2.2,4.34a9.19,9.19,0,0,1-1.22-4.7c.08-1.64,0-3.28,0-4.92V875.26c0-2,0-4-.09-6a2,2,0,0,0-2.12-2c-.91-.08-1.82-.08-2.73-.08H693.31C692.4,867.13,691.49,867.25,690.58,867.31Z"/><path class="cls-32" d="M448.78,1624.18c-1.7,0-3.12-.9-4.59-1.54a227.63,227.63,0,0,1-63.48-41.34,18.71,18.71,0,0,1-1.73-2c3.73-.21,4.89-2,4.87-5.87-.14-40.52-.09-81.05-.07-121.57,0-3.1-.74-6.15-.43-9.25,1.12-1.27,2.72-1.76,4.16-2.51q24.35-12.73,48.71-25.44a19.09,19.09,0,0,1,3.43-1.61,7.63,7.63,0,0,1,5.33.07c1.43.66,1.42,2.4,1.9,3.74q3.22,8.93,6.5,17.86a102,102,0,0,1,.59,13.08q0,82.31,0,164.61c0,2.73.24,5.5-.39,8.18C453,1623,452.08,1625.22,448.78,1624.18Z"/><path class="cls-33" d="M448.78,1624.18c2.15-.18,3.33-1.31,3.38-3.5,0-1.63,0-3.27,0-4.91V1442.11c0-2.53-.32-5.13,1.2-7.42,1.11,2.06,2.27,4.1,3.35,6.18a111.35,111.35,0,0,0,20.16,28.34,80.67,80.67,0,0,0,37.3,21.62,22.22,22.22,0,0,1,2.52,1,14.37,14.37,0,0,0,1.79,1.16,2.14,2.14,0,0,1,1.44,2.07c0,1.28,0,2.55,0,3.82q0,66.53,0,133.06c0,1.46,0,2.91-.09,4.36a2,2,0,0,1-2.14,2c-1.82.08-3.63.07-5.45.1l-4.41.09-2.21.11-4.31-.13c-14.32-2.14-28.45-5.13-42.12-10C455.7,1627.21,452,1626.24,448.78,1624.18Z"/><path class="cls-34" d="M621.5,1434.62a6.94,6.94,0,0,1,2.39,5.83c0,1.09,0,2.18,0,3.27q0,87.55,0,175.11c0,2.52.42,5.12-1.07,7.43-3.76,1.81-7.86,2.53-11.84,3.62-7.47,2-15.09,3.47-22.68,5a26.18,26.18,0,0,1-3.76.22c2.68-2.08,3.34-4.84,3.32-8.16-.1-18.55-.05-37.1-.05-55.65q0-39.82,0-79.66c0-2.73.25-5.52-2.23-7.51,2.26-1.51,4.55-3,6.77-4.54,10.27-7.2,17.47-16.9,22.69-28.17,1.53-3.28,2.9-6.63,4.34-10,1.23-.83.32-2.39,1.15-3.36l0,.08c1.21-.87.36-2.39,1.08-3.42Z"/><path class="cls-35" d="M383.35,1442.58a6.27,6.27,0,0,1,2.11,4.84c0,1.27,0,2.55,0,3.82v124c0,.91,0,1.82,0,2.73,0,1.43.3,3.23-1.33,3.83-1.34.49-2-1.26-3.11-1.84a11.58,11.58,0,0,0-2-.66c-3.39-2.22-6-5.33-8.72-8.21a228.49,228.49,0,0,1-51.95-85.18c-.46-1.34-.53-2.9-1.67-4a10.36,10.36,0,0,0-.48-2.65,1.57,1.57,0,0,1,.64-2.26c.76-.49,1.59-.88,2.4-1.3q29.73-15.51,59.48-31a30.43,30.43,0,0,1,3-1.2,2.64,2.64,0,0,0,1.61-.9Z"/><path class="cls-30" d="M620.52,1438.05c0,1.27.32,2.62-1.15,3.36A4.07,4.07,0,0,1,620.52,1438.05Z"/><path class="cls-30" d="M621.55,1434.71c.12,1.29.41,2.64-1.08,3.42C620.49,1436.89,620.46,1435.62,621.55,1434.71Z"/><path class="cls-34" d="M585.59,1484.07a2.2,2.2,0,0,1-2.21,1.12A2.51,2.51,0,0,1,585.59,1484.07Z"/><path class="cls-32" d="M383.3,1442.6a1.91,1.91,0,0,1-1.61.9A1.73,1.73,0,0,1,383.3,1442.6Z"/><path class="cls-20" d="M912.46,1030.38l0-.08-.09,0Z"/><path class="cls-20" d="M905.9,1023.82l0-.09s-.06,0-.1,0Z"/><path class="cls-20" d="M911.37,1029.29a.32.32,0,0,1,0-.09s-.06,0-.1,0Z"/><path class="cls-20" d="M909.18,1027.1l0-.08-.1,0Z"/><path class="cls-20" d="M914.65,1032.57l0-.08-.1,0Z"/><path class="cls-20" d="M907,1024.91l0-.08-.09,0Z"/><path class="cls-20" d="M908.08,1026s0-.06,0-.09l-.1,0Z"/><path class="cls-20" d="M913.55,1031.48a.32.32,0,0,0,0-.09l-.09,0Z"/><path class="cls-20" d="M920.11,1038s0,0,0-.08l-.1,0Z"/><path class="cls-20" d="M921.21,1039.14a.94.94,0,0,0,0-.09l-.1,0Z"/><path class="cls-20" d="M922.3,1040.23a.32.32,0,0,0,0-.09l-.09,0Z"/><path class="cls-20" d="M915.74,1033.67l0-.09-.09,0Z"/><path class="cls-20" d="M923.4,1041.32s0,0,0-.08-.06,0-.1,0Z"/><path class="cls-20" d="M916.83,1034.76a.32.32,0,0,0,0-.09l-.09,0Z"/><path class="cls-20" d="M919,1037l0-.09-.09,0Z"/><path class="cls-20" d="M917.93,1035.85l0-.08s-.06,0-.1,0Z"/><path class="cls-20" d="M910.27,1028.2a.24.24,0,0,0,0-.09l-.09,0Z"/><path class="cls-20" d="M893.89,1011.78l0-.07-.12,0Z"/><path class="cls-20" d="M918.9,891l.08,0a.29.29,0,0,0,0-.1Z"/><path class="cls-20" d="M895,1012.88l0-.08-.09,0Z"/><path class="cls-20" d="M920,889.93l.09,0a.94.94,0,0,0,0-.09Z"/><path class="cls-20" d="M923.27,886.65l.09,0,0-.09Z"/><path class="cls-20" d="M904.8,1022.73a.24.24,0,0,0,0-.09l-.09,0Z"/><path class="cls-20" d="M921.08,888.84l.09,0a.32.32,0,0,0,0-.09Z"/><path class="cls-20" d="M922.18,887.75s.05,0,.08,0,0-.06,0-.1Z"/><path class="cls-20" d="M896.05,1014a.24.24,0,0,0,0-.09l-.09,0Z"/><path class="cls-20" d="M902.62,1020.54a.32.32,0,0,1,0-.09l-.1,0Z"/><path class="cls-20" d="M901.52,1019.44s0-.05,0-.08l-.09,0Z"/><path class="cls-20" d="M903.71,1021.63l0-.08-.09,0Z"/><path class="cls-20" d="M899.34,1017.26s0-.06,0-.09l-.1,0Z"/><path class="cls-20" d="M900.43,1018.35l0-.09-.09,0Z"/><path class="cls-20" d="M898.24,1016.16s0,0,0-.08l-.09,0Z"/><path class="cls-20" d="M897.15,1015.07l0-.09-.1,0Z"/><path class="cls-20" d="M1056.08,959a3.9,3.9,0,0,0-1.09-1.82c-.84-1-1.77-1.83-2.67-2.73q-25.85-25.87-51.71-51.72c-1.15-1.14-2.42-2.17-3.64-3.25h0c-.57-.69-1.08-1.44-1.71-2.07q-17.87-17.88-35.76-35.74H947.75q-9.07,9-18.13,18.08c-1.78,1.79-3.45,3.7-5.17,5.56l0,.34a1.34,1.34,0,0,1-1.06,1,1.4,1.4,0,0,1-1.1,1.1,14708191362393.85,14708191362393.85,0,0,0-2.18,2.18A1.41,1.41,0,0,1,919,891a1.38,1.38,0,0,1-1.09,1.09.32.32,0,0,0,0-.09,113282.5,113282.5,0,0,1-6.65,6.59,338.37,338.37,0,0,1-3.28,3.28,1.43,1.43,0,0,0-1.09,1.1,1.39,1.39,0,0,0-1.09,1.09,89275596093522.08,89275596093522.08,0,0,1-3.28,3.28,1.41,1.41,0,0,0-1.1,1.1,1.39,1.39,0,0,0-1.09,1.09,169.57,169.57,0,0,0-2.19,2.19,14901947823536.75,14901947823536.75,0,0,0-2.19,2.19,1.4,1.4,0,0,0-1.09,1.09,171.12,171.12,0,0,0-2.2,2.2,1.9,1.9,0,0,0-1.31,1.2h0a5,5,0,0,0-.91.58Q871.73,937.67,853,956.36a6.38,6.38,0,0,0-2.09,5.34,16.24,16.24,0,0,1,0,3.27c-.41,3.19,1,5.44,3.18,7.64,12,11.88,23.95,23.89,35.92,35.84.76.76,1.65,1.4,2.47,2.1a1.6,1.6,0,0,1,1.4,1.16,1.38,1.38,0,0,1,1.07,1.09,1.36,1.36,0,0,1,1.09,1.09,508.71,508.71,0,0,0,3.29,3.28,338.37,338.37,0,0,0,3.28,3.28,1.4,1.4,0,0,1,1.09,1.1,1.38,1.38,0,0,1,1.09,1.09,508.71,508.71,0,0,0,3.29,3.28,338.37,338.37,0,0,0,2.18,2.19,169.57,169.57,0,0,1,2.19,2.19,1.38,1.38,0,0,1,1.09,1.09,1.4,1.4,0,0,1,1.1,1.1,13559113911725.66,13559113911725.66,0,0,1,2.18,2.18,1.41,1.41,0,0,1,1.1,1.1,1.39,1.39,0,0,1,1.09,1.09,1.4,1.4,0,0,1,1.1,1.1,1.39,1.39,0,0,1,1.09,1.09,1.39,1.39,0,0,1,1.09,1.09,1.41,1.41,0,0,1,1.1,1.1,1.35,1.35,0,0,1,1,.93c0,.12,0,.24,0,.36,7.1,8,15,15.2,22.46,22.86a4.53,4.53,0,0,0,3.4,1.44,32.07,32.07,0,0,1,3.8.05c3.36.42,5.77-.88,8.13-3.3,10.65-10.89,21.49-21.59,32.24-32.38.89-.89,1.66-1.9,2.48-2.85h0c1-.83,2-1.6,2.87-2.49q26.64-26.61,53.25-53.26c.64-.64,1.32-1.25,1.9-2a4.07,4.07,0,0,0,1.09-1.83A40.09,40.09,0,0,0,1056.08,959Z"/><path class="cls-20" d="M919,890.9a1.32,1.32,0,0,1-1.2,1.22A1.43,1.43,0,0,1,919,890.9Z"/><path class="cls-20" d="M903.59,1021.52a1.31,1.31,0,0,1,1.21,1.21A1.44,1.44,0,0,1,903.59,1021.52Z"/><path class="cls-20" d="M920.11,889.81A1.34,1.34,0,0,1,918.9,891,1.43,1.43,0,0,1,920.11,889.81Z"/><path class="cls-12" d="M1742.58,1481.72a1.56,1.56,0,0,1-1.06,1.27A1.38,1.38,0,0,1,1742.58,1481.72Z"/><path class="cls-20" d="M902.49,1020.42a1.34,1.34,0,0,1,1.22,1.21A1.44,1.44,0,0,1,902.49,1020.42Z"/><path class="cls-20" d="M901.4,1019.33a1.34,1.34,0,0,1,1.22,1.21A1.44,1.44,0,0,1,901.4,1019.33Z"/><path class="cls-20" d="M921.2,888.72a1.32,1.32,0,0,1-1.21,1.21A1.44,1.44,0,0,1,921.2,888.72Z"/><path class="cls-20" d="M922.3,887.62a1.34,1.34,0,0,1-1.21,1.22A1.43,1.43,0,0,1,922.3,887.62Z"/><path class="cls-7" d="M1980,1585.84l1,1.25A1.34,1.34,0,0,1,1980,1585.84Z"/><path class="cls-20" d="M923.39,886.53a1.34,1.34,0,0,1-1.21,1.22A1.43,1.43,0,0,1,923.39,886.53Z"/><path class="cls-20" d="M900.31,1018.23a1.33,1.33,0,0,1,1.21,1.21A1.42,1.42,0,0,1,900.31,1018.23Z"/><path class="cls-20" d="M899.21,1017.14a1.34,1.34,0,0,1,1.22,1.21A1.44,1.44,0,0,1,899.21,1017.14Z"/><path class="cls-20" d="M898.12,1016.05a1.33,1.33,0,0,1,1.22,1.21A1.44,1.44,0,0,1,898.12,1016.05Z"/><path class="cls-20" d="M924.48,885.43a1.33,1.33,0,0,1-1.21,1.22A1.45,1.45,0,0,1,924.48,885.43Z"/><path class="cls-20" d="M897,1015a1.34,1.34,0,0,1,1.22,1.21A1.44,1.44,0,0,1,897,1015Z"/><path class="cls-20" d="M895.93,1013.86a1.33,1.33,0,0,1,1.22,1.21A1.44,1.44,0,0,1,895.93,1013.86Z"/><path class="cls-20" d="M917.8,1035.74A1.33,1.33,0,0,1,919,1037,1.45,1.45,0,0,1,917.8,1035.74Z"/><path class="cls-36" d="M1165.24,1116.54h29.5c1.46,0,2.92,0,4.37.08a2,2,0,0,1,2.13,2c.09,1.82.09,3.64.09,5.46v490.8c0,2,0,4-.09,6a2.07,2.07,0,0,1-2.14,2,10,10,0,0,1-1.09.06l-32.78-.15Q1165.23,1369.7,1165.24,1116.54Z"/><path class="cls-20" d="M929,1116.54q30.87,0,61.75,0c6.22,0,6.07-.09,6.06,5.93v492.48c0,1.82,0,3.65-.06,5.47s-.65,2.45-2.74,2.59c-.91.06-1.82,0-2.73,0H932.82c-1.27,0-2.55-.11-3.82-.16Q929,1369.7,929,1116.54Z"/></svg>